<mxfile host="app.diagrams.net" agent="Mozilla/5.0 (Windows NT 10.0; Win64; x64) AppleWebKit/537.36 (KHTML, like Gecko) Chrome/135.0.0.0 Safari/537.36" version="26.2.6">
  <diagram id="C5RBs43oDa-KdzZeNtuy" name="Page-1">
    <mxGraphModel dx="1044" dy="568" grid="1" gridSize="10" guides="1" tooltips="1" connect="1" arrows="1" fold="1" page="1" pageScale="1" pageWidth="827" pageHeight="1169" background="light-dark(#FFFFFF,#000000)" math="0" shadow="0">
      <root>
        <mxCell id="WIyWlLk6GJQsqaUBKTNV-0" />
        <mxCell id="WIyWlLk6GJQsqaUBKTNV-1" parent="WIyWlLk6GJQsqaUBKTNV-0" />
        <mxCell id="P-GOo5DEuwRkheMMMlWN-55" value="" style="rounded=0;html=1;jettySize=auto;orthogonalLoop=1;fontSize=11;endArrow=block;endFill=0;endSize=8;strokeWidth=1;shadow=0;labelBackgroundColor=none;edgeStyle=orthogonalEdgeStyle;" edge="1" parent="WIyWlLk6GJQsqaUBKTNV-1" target="P-GOo5DEuwRkheMMMlWN-58">
          <mxGeometry relative="1" as="geometry">
            <mxPoint x="260" y="150" as="sourcePoint" />
          </mxGeometry>
        </mxCell>
        <mxCell id="P-GOo5DEuwRkheMMMlWN-56" value="&lt;font style=&quot;font-size: 18px;&quot;&gt;No&lt;/font&gt;" style="rounded=0;html=1;jettySize=auto;orthogonalLoop=1;fontSize=11;endArrow=block;endFill=0;endSize=8;strokeWidth=1;shadow=0;labelBackgroundColor=none;edgeStyle=orthogonalEdgeStyle;" edge="1" parent="WIyWlLk6GJQsqaUBKTNV-1">
          <mxGeometry x="-0.5" y="20" relative="1" as="geometry">
            <mxPoint as="offset" />
            <mxPoint x="260" y="281" as="sourcePoint" />
            <mxPoint x="260" y="321" as="targetPoint" />
          </mxGeometry>
        </mxCell>
        <mxCell id="P-GOo5DEuwRkheMMMlWN-57" value="&lt;font style=&quot;font-size: 16px;&quot;&gt;Yes&lt;/font&gt;" style="edgeStyle=orthogonalEdgeStyle;rounded=0;html=1;jettySize=auto;orthogonalLoop=1;fontSize=11;endArrow=block;endFill=0;endSize=8;strokeWidth=1;shadow=0;labelBackgroundColor=none;" edge="1" parent="WIyWlLk6GJQsqaUBKTNV-1" source="P-GOo5DEuwRkheMMMlWN-58" target="P-GOo5DEuwRkheMMMlWN-60">
          <mxGeometry x="-0.1837" y="10" relative="1" as="geometry">
            <mxPoint as="offset" />
          </mxGeometry>
        </mxCell>
        <mxCell id="P-GOo5DEuwRkheMMMlWN-58" value="if&lt;div&gt;ip.isEmpty()&lt;/div&gt;" style="rhombus;whiteSpace=wrap;html=1;shadow=0;fontFamily=Helvetica;fontSize=12;align=center;strokeWidth=1;spacing=6;spacingTop=-4;" vertex="1" parent="WIyWlLk6GJQsqaUBKTNV-1">
          <mxGeometry x="210" y="200" width="100" height="80" as="geometry" />
        </mxCell>
        <mxCell id="P-GOo5DEuwRkheMMMlWN-59" style="edgeStyle=orthogonalEdgeStyle;rounded=0;orthogonalLoop=1;jettySize=auto;html=1;exitX=1;exitY=0.5;exitDx=0;exitDy=0;" edge="1" parent="WIyWlLk6GJQsqaUBKTNV-1" source="P-GOo5DEuwRkheMMMlWN-60" target="P-GOo5DEuwRkheMMMlWN-70">
          <mxGeometry relative="1" as="geometry" />
        </mxCell>
        <mxCell id="P-GOo5DEuwRkheMMMlWN-60" value="return true" style="rounded=1;whiteSpace=wrap;html=1;fontSize=12;glass=0;strokeWidth=1;shadow=0;" vertex="1" parent="WIyWlLk6GJQsqaUBKTNV-1">
          <mxGeometry x="359" y="220" width="120" height="40" as="geometry" />
        </mxCell>
        <mxCell id="P-GOo5DEuwRkheMMMlWN-61" value="" style="rounded=0;html=1;jettySize=auto;orthogonalLoop=1;fontSize=11;endArrow=block;endFill=0;endSize=8;strokeWidth=1;shadow=0;labelBackgroundColor=none;edgeStyle=orthogonalEdgeStyle;exitX=0.5;exitY=1;exitDx=0;exitDy=0;" edge="1" parent="WIyWlLk6GJQsqaUBKTNV-1" source="P-GOo5DEuwRkheMMMlWN-102">
          <mxGeometry x="0.3333" y="20" relative="1" as="geometry">
            <mxPoint as="offset" />
            <mxPoint x="255" y="540" as="targetPoint" />
            <mxPoint x="255" y="500" as="sourcePoint" />
          </mxGeometry>
        </mxCell>
        <mxCell id="P-GOo5DEuwRkheMMMlWN-62" value="&lt;font style=&quot;font-size: 14px;&quot;&gt;No&lt;/font&gt;" style="edgeStyle=orthogonalEdgeStyle;rounded=0;html=1;jettySize=auto;orthogonalLoop=1;fontSize=11;endArrow=block;endFill=0;endSize=8;strokeWidth=1;shadow=0;labelBackgroundColor=none;" edge="1" parent="WIyWlLk6GJQsqaUBKTNV-1" source="P-GOo5DEuwRkheMMMlWN-64" target="P-GOo5DEuwRkheMMMlWN-66">
          <mxGeometry y="10" relative="1" as="geometry">
            <mxPoint as="offset" />
          </mxGeometry>
        </mxCell>
        <mxCell id="P-GOo5DEuwRkheMMMlWN-63" style="edgeStyle=none;curved=1;rounded=0;orthogonalLoop=1;jettySize=auto;html=1;fontSize=12;startSize=8;endSize=8;" edge="1" parent="WIyWlLk6GJQsqaUBKTNV-1" source="P-GOo5DEuwRkheMMMlWN-64" target="P-GOo5DEuwRkheMMMlWN-102">
          <mxGeometry relative="1" as="geometry" />
        </mxCell>
        <mxCell id="P-GOo5DEuwRkheMMMlWN-64" value="if&amp;nbsp;&lt;span style=&quot;background-color: transparent; color: light-dark(rgb(0, 0, 0), rgb(255, 255, 255));&quot;&gt;numOfRows&amp;nbsp;&lt;/span&gt;&lt;div&gt;&lt;span style=&quot;background-color: transparent; color: light-dark(rgb(0, 0, 0), rgb(255, 255, 255));&quot;&gt;==&amp;nbsp;&lt;/span&gt;&lt;span style=&quot;background-color: transparent; color: light-dark(rgb(0, 0, 0), rgb(255, 255, 255));&quot;&gt;numOfCols&lt;/span&gt;&lt;/div&gt;" style="rhombus;whiteSpace=wrap;html=1;shadow=0;fontFamily=Helvetica;fontSize=12;align=center;strokeWidth=1;spacing=6;spacingTop=-4;" vertex="1" parent="WIyWlLk6GJQsqaUBKTNV-1">
          <mxGeometry x="190" y="320" width="140" height="100" as="geometry" />
        </mxCell>
        <mxCell id="P-GOo5DEuwRkheMMMlWN-65" style="edgeStyle=orthogonalEdgeStyle;rounded=0;orthogonalLoop=1;jettySize=auto;html=1;exitX=1;exitY=0.5;exitDx=0;exitDy=0;" edge="1" parent="WIyWlLk6GJQsqaUBKTNV-1" source="P-GOo5DEuwRkheMMMlWN-66">
          <mxGeometry relative="1" as="geometry">
            <mxPoint x="510" y="369.5" as="targetPoint" />
          </mxGeometry>
        </mxCell>
        <mxCell id="P-GOo5DEuwRkheMMMlWN-66" value="return false" style="rounded=1;whiteSpace=wrap;html=1;fontSize=12;glass=0;strokeWidth=1;shadow=0;" vertex="1" parent="WIyWlLk6GJQsqaUBKTNV-1">
          <mxGeometry x="370" y="350" width="120" height="40" as="geometry" />
        </mxCell>
        <mxCell id="P-GOo5DEuwRkheMMMlWN-67" value="" style="edgeStyle=orthogonalEdgeStyle;rounded=0;orthogonalLoop=1;jettySize=auto;html=1;" edge="1" parent="WIyWlLk6GJQsqaUBKTNV-1" source="P-GOo5DEuwRkheMMMlWN-68" target="P-GOo5DEuwRkheMMMlWN-69">
          <mxGeometry relative="1" as="geometry" />
        </mxCell>
        <mxCell id="P-GOo5DEuwRkheMMMlWN-68" value="Start" style="ellipse;whiteSpace=wrap;html=1;" vertex="1" parent="WIyWlLk6GJQsqaUBKTNV-1">
          <mxGeometry x="200" y="70" width="120" height="40" as="geometry" />
        </mxCell>
        <mxCell id="P-GOo5DEuwRkheMMMlWN-69" value="input grid" style="shape=parallelogram;perimeter=parallelogramPerimeter;whiteSpace=wrap;html=1;fixedSize=1;" vertex="1" parent="WIyWlLk6GJQsqaUBKTNV-1">
          <mxGeometry x="200" y="130" width="120" height="30" as="geometry" />
        </mxCell>
        <mxCell id="P-GOo5DEuwRkheMMMlWN-70" value="end" style="ellipse;whiteSpace=wrap;html=1;" vertex="1" parent="WIyWlLk6GJQsqaUBKTNV-1">
          <mxGeometry x="452" y="1281" width="120" height="40" as="geometry" />
        </mxCell>
        <mxCell id="P-GOo5DEuwRkheMMMlWN-71" style="edgeStyle=orthogonalEdgeStyle;rounded=0;orthogonalLoop=1;jettySize=auto;html=1;exitX=1;exitY=0.5;exitDx=0;exitDy=0;" edge="1" parent="WIyWlLk6GJQsqaUBKTNV-1" source="P-GOo5DEuwRkheMMMlWN-73">
          <mxGeometry relative="1" as="geometry">
            <mxPoint x="365" y="589.5" as="targetPoint" />
          </mxGeometry>
        </mxCell>
        <mxCell id="P-GOo5DEuwRkheMMMlWN-72" style="edgeStyle=orthogonalEdgeStyle;rounded=0;orthogonalLoop=1;jettySize=auto;html=1;exitX=0.5;exitY=1;exitDx=0;exitDy=0;" edge="1" parent="WIyWlLk6GJQsqaUBKTNV-1" source="P-GOo5DEuwRkheMMMlWN-73">
          <mxGeometry relative="1" as="geometry">
            <mxPoint x="254.75" y="680" as="targetPoint" />
          </mxGeometry>
        </mxCell>
        <mxCell id="P-GOo5DEuwRkheMMMlWN-73" value="if value == null" style="rhombus;whiteSpace=wrap;html=1;shadow=0;fontFamily=Helvetica;fontSize=12;align=center;strokeWidth=1;spacing=6;spacingTop=-4;" vertex="1" parent="WIyWlLk6GJQsqaUBKTNV-1">
          <mxGeometry x="185" y="540" width="140" height="100" as="geometry" />
        </mxCell>
        <mxCell id="P-GOo5DEuwRkheMMMlWN-74" style="edgeStyle=orthogonalEdgeStyle;rounded=0;orthogonalLoop=1;jettySize=auto;html=1;" edge="1" parent="WIyWlLk6GJQsqaUBKTNV-1" source="P-GOo5DEuwRkheMMMlWN-75">
          <mxGeometry relative="1" as="geometry">
            <mxPoint x="505" y="590" as="targetPoint" />
          </mxGeometry>
        </mxCell>
        <mxCell id="P-GOo5DEuwRkheMMMlWN-75" value="return false" style="rounded=1;whiteSpace=wrap;html=1;fontSize=12;glass=0;strokeWidth=1;shadow=0;" vertex="1" parent="WIyWlLk6GJQsqaUBKTNV-1">
          <mxGeometry x="365" y="570" width="110" height="40" as="geometry" />
        </mxCell>
        <mxCell id="P-GOo5DEuwRkheMMMlWN-76" value="Yes" style="text;html=1;align=center;verticalAlign=middle;resizable=0;points=[];autosize=1;strokeColor=none;fillColor=none;" vertex="1" parent="WIyWlLk6GJQsqaUBKTNV-1">
          <mxGeometry x="315" y="558" width="40" height="30" as="geometry" />
        </mxCell>
        <mxCell id="P-GOo5DEuwRkheMMMlWN-77" style="edgeStyle=orthogonalEdgeStyle;rounded=0;orthogonalLoop=1;jettySize=auto;html=1;exitX=1;exitY=0.5;exitDx=0;exitDy=0;entryX=0;entryY=0.5;entryDx=0;entryDy=0;" edge="1" parent="WIyWlLk6GJQsqaUBKTNV-1" source="P-GOo5DEuwRkheMMMlWN-79">
          <mxGeometry relative="1" as="geometry">
            <mxPoint x="370" y="721" as="targetPoint" />
          </mxGeometry>
        </mxCell>
        <mxCell id="P-GOo5DEuwRkheMMMlWN-78" value="" style="edgeStyle=orthogonalEdgeStyle;rounded=0;orthogonalLoop=1;jettySize=auto;html=1;" edge="1" parent="WIyWlLk6GJQsqaUBKTNV-1" source="P-GOo5DEuwRkheMMMlWN-79" target="P-GOo5DEuwRkheMMMlWN-84">
          <mxGeometry relative="1" as="geometry" />
        </mxCell>
        <mxCell id="P-GOo5DEuwRkheMMMlWN-79" value="if subgrid&amp;nbsp;&lt;div&gt;contains duplicates&lt;/div&gt;" style="rhombus;whiteSpace=wrap;html=1;" vertex="1" parent="WIyWlLk6GJQsqaUBKTNV-1">
          <mxGeometry x="170" y="681" width="170" height="80" as="geometry" />
        </mxCell>
        <mxCell id="P-GOo5DEuwRkheMMMlWN-80" style="edgeStyle=orthogonalEdgeStyle;rounded=0;orthogonalLoop=1;jettySize=auto;html=1;" edge="1" parent="WIyWlLk6GJQsqaUBKTNV-1" source="P-GOo5DEuwRkheMMMlWN-81">
          <mxGeometry relative="1" as="geometry">
            <mxPoint x="510" y="720" as="targetPoint" />
          </mxGeometry>
        </mxCell>
        <mxCell id="P-GOo5DEuwRkheMMMlWN-81" value="return false" style="rounded=1;whiteSpace=wrap;html=1;fontSize=12;glass=0;strokeWidth=1;shadow=0;" vertex="1" parent="WIyWlLk6GJQsqaUBKTNV-1">
          <mxGeometry x="375" y="701" width="110" height="40" as="geometry" />
        </mxCell>
        <mxCell id="P-GOo5DEuwRkheMMMlWN-82" value="Yes" style="text;html=1;align=center;verticalAlign=middle;resizable=0;points=[];autosize=1;strokeColor=none;fillColor=none;" vertex="1" parent="WIyWlLk6GJQsqaUBKTNV-1">
          <mxGeometry x="335" y="689" width="40" height="30" as="geometry" />
        </mxCell>
        <mxCell id="P-GOo5DEuwRkheMMMlWN-83" value="" style="edgeStyle=orthogonalEdgeStyle;rounded=0;orthogonalLoop=1;jettySize=auto;html=1;" edge="1" parent="WIyWlLk6GJQsqaUBKTNV-1" source="P-GOo5DEuwRkheMMMlWN-84">
          <mxGeometry relative="1" as="geometry">
            <mxPoint x="254.99999999999977" y="909.0000000000002" as="targetPoint" />
          </mxGeometry>
        </mxCell>
        <mxCell id="P-GOo5DEuwRkheMMMlWN-84" value="if row&lt;div&gt;contains duplicates&lt;/div&gt;" style="rhombus;whiteSpace=wrap;html=1;" vertex="1" parent="WIyWlLk6GJQsqaUBKTNV-1">
          <mxGeometry x="170" y="791" width="170" height="80" as="geometry" />
        </mxCell>
        <mxCell id="P-GOo5DEuwRkheMMMlWN-85" value="No" style="text;html=1;align=center;verticalAlign=middle;resizable=0;points=[];autosize=1;strokeColor=none;fillColor=none;" vertex="1" parent="WIyWlLk6GJQsqaUBKTNV-1">
          <mxGeometry x="245" y="759" width="40" height="30" as="geometry" />
        </mxCell>
        <mxCell id="P-GOo5DEuwRkheMMMlWN-86" value="No" style="text;html=1;align=center;verticalAlign=middle;resizable=0;points=[];autosize=1;strokeColor=none;fillColor=none;" vertex="1" parent="WIyWlLk6GJQsqaUBKTNV-1">
          <mxGeometry x="245" y="879" width="40" height="30" as="geometry" />
        </mxCell>
        <mxCell id="P-GOo5DEuwRkheMMMlWN-87" style="edgeStyle=orthogonalEdgeStyle;rounded=0;orthogonalLoop=1;jettySize=auto;html=1;entryX=0;entryY=0.5;entryDx=0;entryDy=0;" edge="1" parent="WIyWlLk6GJQsqaUBKTNV-1" source="P-GOo5DEuwRkheMMMlWN-89">
          <mxGeometry relative="1" as="geometry">
            <mxPoint x="365" y="954" as="targetPoint" />
          </mxGeometry>
        </mxCell>
        <mxCell id="P-GOo5DEuwRkheMMMlWN-88" value="" style="edgeStyle=orthogonalEdgeStyle;rounded=0;orthogonalLoop=1;jettySize=auto;html=1;" edge="1" parent="WIyWlLk6GJQsqaUBKTNV-1" source="P-GOo5DEuwRkheMMMlWN-89">
          <mxGeometry relative="1" as="geometry">
            <mxPoint x="256" y="1045" as="targetPoint" />
          </mxGeometry>
        </mxCell>
        <mxCell id="P-GOo5DEuwRkheMMMlWN-89" value="if col&lt;div&gt;contains duplicates&lt;/div&gt;" style="rhombus;whiteSpace=wrap;html=1;" vertex="1" parent="WIyWlLk6GJQsqaUBKTNV-1">
          <mxGeometry x="181" y="909" width="150" height="90" as="geometry" />
        </mxCell>
        <mxCell id="P-GOo5DEuwRkheMMMlWN-90" style="edgeStyle=orthogonalEdgeStyle;rounded=0;orthogonalLoop=1;jettySize=auto;html=1;exitX=1;exitY=0.5;exitDx=0;exitDy=0;" edge="1" parent="WIyWlLk6GJQsqaUBKTNV-1">
          <mxGeometry relative="1" as="geometry">
            <mxPoint x="511" y="946" as="targetPoint" />
            <mxPoint x="470" y="946" as="sourcePoint" />
          </mxGeometry>
        </mxCell>
        <mxCell id="P-GOo5DEuwRkheMMMlWN-91" value="return false" style="rounded=1;whiteSpace=wrap;html=1;fontSize=12;glass=0;strokeWidth=1;shadow=0;" vertex="1" parent="WIyWlLk6GJQsqaUBKTNV-1">
          <mxGeometry x="369" y="926" width="110" height="40" as="geometry" />
        </mxCell>
        <mxCell id="P-GOo5DEuwRkheMMMlWN-92" value="Yes" style="text;html=1;align=center;verticalAlign=middle;resizable=0;points=[];autosize=1;strokeColor=none;fillColor=none;" vertex="1" parent="WIyWlLk6GJQsqaUBKTNV-1">
          <mxGeometry x="319" y="931" width="40" height="30" as="geometry" />
        </mxCell>
        <mxCell id="P-GOo5DEuwRkheMMMlWN-93" style="edgeStyle=orthogonalEdgeStyle;rounded=0;orthogonalLoop=1;jettySize=auto;html=1;entryX=0;entryY=0.5;entryDx=0;entryDy=0;" edge="1" parent="WIyWlLk6GJQsqaUBKTNV-1" source="P-GOo5DEuwRkheMMMlWN-95" target="P-GOo5DEuwRkheMMMlWN-98">
          <mxGeometry relative="1" as="geometry">
            <mxPoint x="365" y="1174" as="targetPoint" />
          </mxGeometry>
        </mxCell>
        <mxCell id="P-GOo5DEuwRkheMMMlWN-94" value="" style="edgeStyle=orthogonalEdgeStyle;rounded=0;orthogonalLoop=1;jettySize=auto;html=1;" edge="1" parent="WIyWlLk6GJQsqaUBKTNV-1" source="P-GOo5DEuwRkheMMMlWN-95">
          <mxGeometry relative="1" as="geometry">
            <mxPoint x="255" y="1261" as="targetPoint" />
          </mxGeometry>
        </mxCell>
        <mxCell id="P-GOo5DEuwRkheMMMlWN-95" value="if&amp;nbsp;&lt;div&gt;&lt;span style=&quot;background-color: transparent; color: light-dark(rgb(0, 0, 0), rgb(255, 255, 255));&quot;&gt;gridValues &amp;lt; 1 or&amp;nbsp;&lt;/span&gt;&lt;div&gt;gridVales &amp;gt; grid.size&lt;/div&gt;&lt;/div&gt;" style="rhombus;whiteSpace=wrap;html=1;" vertex="1" parent="WIyWlLk6GJQsqaUBKTNV-1">
          <mxGeometry x="171" y="1037" width="170" height="114" as="geometry" />
        </mxCell>
        <mxCell id="P-GOo5DEuwRkheMMMlWN-96" value="No" style="text;html=1;align=center;verticalAlign=middle;resizable=0;points=[];autosize=1;strokeColor=none;fillColor=none;" vertex="1" parent="WIyWlLk6GJQsqaUBKTNV-1">
          <mxGeometry x="246" y="1007" width="40" height="30" as="geometry" />
        </mxCell>
        <mxCell id="P-GOo5DEuwRkheMMMlWN-97" style="edgeStyle=orthogonalEdgeStyle;rounded=0;orthogonalLoop=1;jettySize=auto;html=1;" edge="1" parent="WIyWlLk6GJQsqaUBKTNV-1">
          <mxGeometry relative="1" as="geometry">
            <mxPoint x="510" y="1090" as="targetPoint" />
            <mxPoint x="480" y="1090.9473684210527" as="sourcePoint" />
          </mxGeometry>
        </mxCell>
        <mxCell id="P-GOo5DEuwRkheMMMlWN-98" value="return false" style="rounded=1;whiteSpace=wrap;html=1;fontSize=12;glass=0;strokeWidth=1;shadow=0;" vertex="1" parent="WIyWlLk6GJQsqaUBKTNV-1">
          <mxGeometry x="370" y="1074" width="110" height="40" as="geometry" />
        </mxCell>
        <mxCell id="P-GOo5DEuwRkheMMMlWN-99" value="Yes" style="text;html=1;align=center;verticalAlign=middle;resizable=0;points=[];autosize=1;strokeColor=none;fillColor=none;" vertex="1" parent="WIyWlLk6GJQsqaUBKTNV-1">
          <mxGeometry x="329" y="1071" width="40" height="30" as="geometry" />
        </mxCell>
        <mxCell id="P-GOo5DEuwRkheMMMlWN-100" style="edgeStyle=none;curved=1;rounded=0;orthogonalLoop=1;jettySize=auto;html=1;fontSize=12;startSize=8;endSize=8;" edge="1" parent="WIyWlLk6GJQsqaUBKTNV-1" source="P-GOo5DEuwRkheMMMlWN-101">
          <mxGeometry relative="1" as="geometry">
            <mxPoint x="452" y="1299" as="targetPoint" />
          </mxGeometry>
        </mxCell>
        <mxCell id="P-GOo5DEuwRkheMMMlWN-101" value="return true" style="rounded=1;whiteSpace=wrap;html=1;fontSize=12;glass=0;strokeWidth=1;shadow=0;" vertex="1" parent="WIyWlLk6GJQsqaUBKTNV-1">
          <mxGeometry x="207" y="1271.5" width="110" height="55" as="geometry" />
        </mxCell>
        <mxCell id="P-GOo5DEuwRkheMMMlWN-102" value="value= grid.toIntOrNull()" style="rounded=1;whiteSpace=wrap;html=1;fontSize=12;glass=0;strokeWidth=1;shadow=0;" vertex="1" parent="WIyWlLk6GJQsqaUBKTNV-1">
          <mxGeometry x="190" y="440" width="130" height="40" as="geometry" />
        </mxCell>
        <mxCell id="P-GOo5DEuwRkheMMMlWN-103" value="Yes" style="text;html=1;align=center;verticalAlign=middle;resizable=0;points=[];autosize=1;strokeColor=none;fillColor=none;fontSize=16;" vertex="1" parent="WIyWlLk6GJQsqaUBKTNV-1">
          <mxGeometry x="260" y="410" width="50" height="30" as="geometry" />
        </mxCell>
        <mxCell id="P-GOo5DEuwRkheMMMlWN-104" value="No" style="text;html=1;align=center;verticalAlign=middle;resizable=0;points=[];autosize=1;strokeColor=none;fillColor=none;fontSize=16;" vertex="1" parent="WIyWlLk6GJQsqaUBKTNV-1">
          <mxGeometry x="250" y="640" width="40" height="30" as="geometry" />
        </mxCell>
        <mxCell id="P-GOo5DEuwRkheMMMlWN-105" style="edgeStyle=orthogonalEdgeStyle;rounded=0;orthogonalLoop=1;jettySize=auto;html=1;exitX=1;exitY=0.5;exitDx=0;exitDy=0;entryX=0;entryY=0.5;entryDx=0;entryDy=0;" edge="1" parent="WIyWlLk6GJQsqaUBKTNV-1">
          <mxGeometry relative="1" as="geometry">
            <mxPoint x="340" y="831" as="sourcePoint" />
            <mxPoint x="370" y="831" as="targetPoint" />
          </mxGeometry>
        </mxCell>
        <mxCell id="P-GOo5DEuwRkheMMMlWN-106" style="edgeStyle=orthogonalEdgeStyle;rounded=0;orthogonalLoop=1;jettySize=auto;html=1;" edge="1" parent="WIyWlLk6GJQsqaUBKTNV-1" source="P-GOo5DEuwRkheMMMlWN-107">
          <mxGeometry relative="1" as="geometry">
            <mxPoint x="510" y="830" as="targetPoint" />
          </mxGeometry>
        </mxCell>
        <mxCell id="P-GOo5DEuwRkheMMMlWN-107" value="return false" style="rounded=1;whiteSpace=wrap;html=1;fontSize=12;glass=0;strokeWidth=1;shadow=0;" vertex="1" parent="WIyWlLk6GJQsqaUBKTNV-1">
          <mxGeometry x="375" y="811" width="110" height="40" as="geometry" />
        </mxCell>
        <mxCell id="P-GOo5DEuwRkheMMMlWN-108" value="Yes" style="text;html=1;align=center;verticalAlign=middle;resizable=0;points=[];autosize=1;strokeColor=none;fillColor=none;" vertex="1" parent="WIyWlLk6GJQsqaUBKTNV-1">
          <mxGeometry x="335" y="799" width="40" height="30" as="geometry" />
        </mxCell>
        <mxCell id="P-GOo5DEuwRkheMMMlWN-109" value="No" style="text;html=1;align=center;verticalAlign=middle;resizable=0;points=[];autosize=1;strokeColor=none;fillColor=none;" vertex="1" parent="WIyWlLk6GJQsqaUBKTNV-1">
          <mxGeometry x="265" y="1161" width="40" height="30" as="geometry" />
        </mxCell>
      </root>
    </mxGraphModel>
  </diagram>
</mxfile>
